<svg width="20" height="20" viewBox="0 0 20 20" fill="none" xmlns="http://www.w3.org/2000/svg">
<path fill-rule="evenodd" clip-rule="evenodd" d="M8.21255 10.8333C7.85399 12.0381 6.73793 12.9167 5.41667 12.9167C4.09541 12.9167 2.97934 12.0381 2.62078 10.8333H0.833912C0.373355 10.8333 0 10.4634 0 10C0 9.53976 0.372891 9.16667 0.833912 9.16667H2.62078C2.97934 7.96188 4.09541 7.08333 5.41667 7.08333C6.73793 7.08333 7.85399 7.96188 8.21255 9.16667H19.1661C19.6266 9.16667 20 9.53655 20 10C20 10.4602 19.6271 10.8333 19.1661 10.8333H8.21255ZM11.7874 16.25C12.146 15.0452 13.2621 14.1667 14.5833 14.1667C15.9046 14.1667 17.0207 15.0452 17.3792 16.25H19.1661C19.6266 16.25 20 16.6199 20 17.0833C20 17.5436 19.6271 17.9167 19.1661 17.9167H17.3792C17.0207 19.1215 15.9046 20 14.5833 20C13.2621 20 12.146 19.1215 11.7874 17.9167H0.833912C0.373355 17.9167 0 17.5468 0 17.0833C0 16.6231 0.372891 16.25 0.833912 16.25H11.7874ZM11.7874 2.08333C12.146 0.878546 13.2621 0 14.5833 0C15.9046 0 17.0207 0.878546 17.3792 2.08333H19.1661C19.6266 2.08333 20 2.45322 20 2.91667C20 3.3769 19.6271 3.75 19.1661 3.75H17.3792C17.0207 4.95479 15.9046 5.83333 14.5833 5.83333C13.2621 5.83333 12.146 4.95479 11.7874 3.75H0.833912C0.373355 3.75 0 3.38011 0 2.91667C0 2.45643 0.372891 2.08333 0.833912 2.08333H11.7874ZM14.5833 4.16667C15.2737 4.16667 15.8333 3.60702 15.8333 2.91667C15.8333 2.22631 15.2737 1.66667 14.5833 1.66667C13.893 1.66667 13.3333 2.22631 13.3333 2.91667C13.3333 3.60702 13.893 4.16667 14.5833 4.16667ZM14.5833 18.3333C15.2737 18.3333 15.8333 17.7737 15.8333 17.0833C15.8333 16.393 15.2737 15.8333 14.5833 15.8333C13.893 15.8333 13.3333 16.393 13.3333 17.0833C13.3333 17.7737 13.893 18.3333 14.5833 18.3333ZM5.41667 8.75C4.72631 8.75 4.16667 9.30964 4.16667 10C4.16667 10.6904 4.72631 11.25 5.41667 11.25C6.10702 11.25 6.66667 10.6904 6.66667 10C6.66667 9.30964 6.10702 8.75 5.41667 8.75Z" fill="#363636"/>
</svg>
